<svg xmlns="http://www.w3.org/2000/svg" width="100" height="100" viewBox="0 0 100 100"><rect width="100%" height="100%" fill="#3b82f6"/><path fill="#ffffff" d="m30.27 42.025-1.65-2.63q1.43-1.15 3.24-1.93 1.81-.79 4.29-.79 1.75 0 3.15.47 1.4.48 2.38 1.34.97.86 1.48 2.08.52 1.21.52 2.68 0 1.38-.36 2.37-.34.98-.87 1.72-.52.74-1.15 1.26-.62.53-1.2.99t-1.01.92q-.44.44-.57 1l-.55 2.39h-4.22l-.43-2.85q-.15-.92.14-1.58.29-.67.8-1.2.51-.54 1.15-1 .64-.47 1.2-.98t.95-1.15.39-1.51q0-.88-.6-1.43t-1.75-.55q-.9 0-1.51.18-.61.17-1.07.37-.45.2-.78.38-.34.17-.72.17-.85 0-1.25-.72m2 18.22q0-.7.27-1.32.26-.63.71-1.09t1.07-.72q.63-.27 1.35-.27.7 0 1.32.27.61.26 1.07.72t.73 1.09q.26.62.26 1.32 0 .73-.26 1.34-.27.61-.73 1.06t-1.07.72q-.62.26-1.32.26-.72 0-1.35-.26-.62-.27-1.07-.72t-.71-1.06q-.27-.61-.27-1.34m-8.57 7.83v-36.15h25.25v36.15zm1.62-34.45v32.72h21.83v-32.72zm32.31 8.4-1.65-2.63q1.42-1.15 3.23-1.93 1.82-.79 4.29-.79 1.75 0 3.15.47 1.4.48 2.38 1.34.97.86 1.48 2.08.52 1.21.52 2.68 0 1.38-.35 2.37-.35.98-.88 1.72-.52.74-1.15 1.26-.62.53-1.2.99-.57.46-1.01.92-.44.44-.56 1l-.55 2.39H61.1l-.42-2.85q-.15-.92.13-1.58.29-.67.8-1.2.52-.54 1.15-1 .64-.47 1.2-.98.57-.51.95-1.15.39-.64.39-1.51 0-.88-.6-1.43t-1.75-.55q-.9 0-1.51.18-.61.17-1.06.37t-.79.38q-.34.17-.71.17-.85 0-1.25-.72m2 18.22q0-.7.26-1.32.26-.63.71-1.09t1.08-.72q.62-.27 1.35-.27.7 0 1.31.27.61.26 1.07.72.47.46.73 1.09.26.62.26 1.32 0 .73-.26 1.34t-.73 1.06q-.46.45-1.07.72-.61.26-1.31.26-.73 0-1.35-.26-.63-.27-1.08-.72t-.71-1.06-.26-1.34m-8.58 7.83v-36.15H76.3v36.15zm1.63-34.45v32.72H74.5v-32.72z"/></svg>