<svg xmlns="http://www.w3.org/2000/svg" width="600" height="400" viewBox="0 0 600 400"><rect width="100%" height="100%" fill="#f43f5e"/><path fill="#ffffff" d="m129.13 188.2-2.44-3.89q2.11-1.7 4.79-2.87 2.69-1.16 6.35-1.16 2.59 0 4.66.7t3.52 1.98q1.44 1.28 2.2 3.07.76 1.8.76 3.98 0 2.03-.52 3.5-.52 1.46-1.3 2.55-.77 1.09-1.7 1.87-.92.77-1.78 1.46-.85.68-1.49 1.35-.65.67-.84 1.48l-.81 3.55h-6.25l-.63-4.22q-.22-1.37.2-2.35.43-.98 1.19-1.77.75-.8 1.7-1.48.94-.69 1.77-1.45.84-.75 1.41-1.7.57-.94.57-2.24 0-1.29-.89-2.1-.88-.82-2.59-.82-1.33 0-2.23.26-.91.26-1.58.56-.66.29-1.16.55t-1.06.26q-1.25 0-1.85-1.07m2.96 26.97q0-1.04.39-1.96.39-.93 1.06-1.61.66-.69 1.59-1.07.92-.39 2-.39 1.03 0 1.94.39.9.38 1.59 1.07.68.68 1.07 1.61.39.92.39 1.96 0 1.07-.39 1.98-.39.9-1.07 1.57-.69.67-1.59 1.06-.91.38-1.94.38-1.08 0-2-.38-.93-.39-1.59-1.06-.67-.67-1.06-1.57-.39-.91-.39-1.98m-12.69 11.58v-53.5h37.37v53.5zm2.41-50.99v48.44h32.3v-48.44zm47.8 12.44-2.44-3.89q2.11-1.7 4.79-2.87 2.68-1.16 6.35-1.16 2.59 0 4.66.7t3.51 1.98q1.45 1.28 2.21 3.07.75 1.8.75 3.98 0 2.03-.51 3.5-.52 1.46-1.3 2.55t-1.7 1.87q-.93.77-1.78 1.46-.85.68-1.5 1.35-.64.67-.83 1.48l-.81 3.55h-6.26l-.62-4.22q-.23-1.37.2-2.35.42-.98 1.18-1.77.76-.8 1.71-1.48.94-.69 1.77-1.45.83-.75 1.41-1.7.57-.94.57-2.24 0-1.29-.89-2.1-.89-.82-2.59-.82-1.33 0-2.24.26-.9.26-1.57.56-.66.29-1.16.55t-1.06.26q-1.26 0-1.85-1.07m2.96 26.97q0-1.04.39-1.96.39-.93 1.06-1.61.66-.69 1.59-1.07.92-.39 1.99-.39 1.04 0 1.95.39.9.38 1.59 1.07.68.68 1.07 1.61.39.92.39 1.96 0 1.07-.39 1.98-.39.9-1.07 1.57-.69.67-1.59 1.06-.91.38-1.95.38-1.07 0-1.99-.38-.93-.39-1.59-1.06-.67-.67-1.06-1.57-.39-.91-.39-1.98m-12.69 11.58v-53.5h37.37v53.5zm2.41-50.99v48.44h32.3v-48.44zm47.8 12.44-2.44-3.89q2.11-1.7 4.79-2.87 2.68-1.16 6.35-1.16 2.58 0 4.66.7 2.07.7 3.51 1.98 1.45 1.28 2.2 3.07.76 1.8.76 3.98 0 2.03-.52 3.5-.51 1.46-1.29 2.55t-1.7 1.87q-.93.77-1.78 1.46-.85.68-1.5 1.35-.64.67-.83 1.48l-.81 3.55h-6.26l-.63-4.22q-.22-1.37.21-2.35.42-.98 1.18-1.77.76-.8 1.7-1.48.95-.69 1.78-1.45.83-.75 1.41-1.7.57-.94.57-2.24 0-1.29-.89-2.1-.89-.82-2.59-.82-1.33 0-2.24.26-.9.26-1.57.56-.67.29-1.17.55-.49.26-1.05.26-1.26 0-1.85-1.07m2.96 26.97q0-1.04.39-1.96.39-.93 1.05-1.61.67-.69 1.59-1.07.93-.39 2-.39 1.04 0 1.94.39.91.38 1.6 1.07.68.68 1.07 1.61.39.92.39 1.96 0 1.07-.39 1.98-.39.9-1.07 1.57-.69.67-1.6 1.06-.9.38-1.94.38-1.07 0-2-.38-.92-.39-1.59-1.06-.66-.67-1.05-1.57-.39-.91-.39-1.98m-12.69 11.58v-53.5h37.37v53.5zm2.4-50.99v48.44h32.3v-48.44zm47.81 12.44-2.44-3.89q2.11-1.7 4.79-2.87 2.68-1.16 6.34-1.16 2.59 0 4.67.7 2.07.7 3.51 1.98t2.2 3.07q.76 1.8.76 3.98 0 2.03-.52 3.5-.52 1.46-1.29 2.55-.78 1.09-1.7 1.87-.93.77-1.78 1.46-.85.68-1.5 1.35t-.83 1.48l-.82 3.55h-6.25l-.63-4.22q-.22-1.37.21-2.35.42-.98 1.18-1.77.76-.8 1.7-1.48.95-.69 1.78-1.45.83-.75 1.4-1.7.58-.94.58-2.24 0-1.29-.89-2.1-.89-.82-2.59-.82-1.33 0-2.24.26t-1.57.56q-.67.29-1.17.55t-1.05.26q-1.26 0-1.85-1.07m2.96 26.97q0-1.04.39-1.96.39-.93 1.05-1.61.67-.69 1.59-1.07.93-.39 2-.39 1.04 0 1.94.39.91.38 1.59 1.07.69.68 1.08 1.61.39.92.39 1.96 0 1.07-.39 1.98-.39.9-1.08 1.57-.68.67-1.59 1.06-.9.38-1.94.38-1.07 0-2-.38-.92-.39-1.59-1.06-.66-.67-1.05-1.57-.39-.91-.39-1.98m-12.69 11.58v-53.5h37.37v53.5zm2.4-50.99v48.44h32.3v-48.44zm47.81 12.44-2.45-3.89q2.11-1.7 4.8-2.87 2.68-1.16 6.34-1.16 2.59 0 4.66.7 2.08.7 3.52 1.98t2.2 3.07q.76 1.8.76 3.98 0 2.03-.52 3.5-.52 1.46-1.29 2.55-.78 1.09-1.71 1.87-.92.77-1.77 1.46-.85.68-1.5 1.35t-.83 1.48l-.82 3.55h-6.25l-.63-4.22q-.22-1.37.2-2.35.43-.98 1.19-1.77.76-.8 1.7-1.48.94-.69 1.78-1.45.83-.75 1.4-1.7.58-.94.58-2.24 0-1.29-.89-2.1-.89-.82-2.59-.82-1.33 0-2.24.26t-1.57.56q-.67.29-1.17.55t-1.05.26q-1.26 0-1.85-1.07m2.96 26.97q0-1.04.38-1.96.39-.93 1.06-1.61.67-.69 1.59-1.07.93-.39 2-.39 1.03 0 1.94.39.91.38 1.59 1.07.69.68 1.07 1.61.39.92.39 1.96 0 1.07-.39 1.98-.38.9-1.07 1.57-.68.67-1.59 1.06-.91.38-1.94.38-1.07 0-2-.38-.92-.39-1.59-1.06t-1.06-1.57q-.38-.91-.38-1.98m-12.69 11.58v-53.5h37.37v53.5zm2.4-50.99v48.44h32.3v-48.44zm47.8 12.44-2.44-3.89q2.11-1.7 4.79-2.87 2.69-1.16 6.35-1.16 2.59 0 4.66.7t3.52 1.98q1.44 1.28 2.2 3.07.76 1.8.76 3.98 0 2.03-.52 3.5-.52 1.46-1.3 2.55-.77 1.09-1.7 1.87-.92.77-1.77 1.46-.86.68-1.5 1.35-.65.67-.84 1.48l-.81 3.55h-6.25l-.63-4.22q-.22-1.37.2-2.35.43-.98 1.19-1.77.75-.8 1.7-1.48.94-.69 1.77-1.45.84-.75 1.41-1.7.57-.94.57-2.24 0-1.29-.88-2.1-.89-.82-2.59-.82-1.34 0-2.24.26-.91.26-1.58.56-.66.29-1.16.55t-1.06.26q-1.25 0-1.85-1.07m2.96 26.97q0-1.04.39-1.96.39-.93 1.06-1.61.66-.69 1.59-1.07.92-.39 2-.39 1.03 0 1.94.39.91.38 1.59 1.07.68.68 1.07 1.61.39.92.39 1.96 0 1.07-.39 1.98-.39.9-1.07 1.57t-1.59 1.06q-.91.38-1.94.38-1.08 0-2-.38-.93-.39-1.59-1.06-.67-.67-1.06-1.57-.39-.91-.39-1.98m-12.69 11.58v-53.5h37.37v53.5zm2.41-50.99v48.44h32.3v-48.44zM372 188.2l-2.44-3.89q2.11-1.7 4.79-2.87 2.68-1.16 6.35-1.16 2.59 0 4.66.7t3.51 1.98q1.45 1.28 2.21 3.07.75 1.8.75 3.98 0 2.03-.51 3.5-.52 1.46-1.3 2.55t-1.7 1.87q-.93.77-1.78 1.46-.85.68-1.5 1.35-.64.67-.83 1.48l-.81 3.55h-6.25l-.63-4.22q-.23-1.37.2-2.35t1.18-1.77q.76-.8 1.71-1.48.94-.69 1.77-1.45.83-.75 1.41-1.7.57-.94.57-2.24 0-1.29-.89-2.1-.88-.82-2.59-.82-1.33 0-2.24.26-.9.26-1.57.56-.66.29-1.16.55t-1.06.26q-1.26 0-1.85-1.07m2.96 26.97q0-1.04.39-1.96.39-.93 1.06-1.61.66-.69 1.59-1.07.92-.39 1.99-.39 1.04 0 1.95.39.9.38 1.59 1.07.68.68 1.07 1.61.39.92.39 1.96 0 1.07-.39 1.98-.39.9-1.07 1.57-.69.67-1.59 1.06-.91.38-1.95.38-1.07 0-1.99-.38-.93-.39-1.59-1.06-.67-.67-1.06-1.57-.39-.91-.39-1.98m-12.69 11.58v-53.5h37.37v53.5zm2.41-50.99v48.44h32.3v-48.44zm47.8 12.44-2.44-3.89q2.11-1.7 4.79-2.87 2.68-1.16 6.35-1.16 2.59 0 4.66.7t3.51 1.98q1.45 1.28 2.2 3.07.76 1.8.76 3.98 0 2.03-.52 3.5-.51 1.46-1.29 2.55t-1.7 1.87q-.93.77-1.78 1.46-.85.68-1.5 1.35-.64.67-.83 1.48l-.81 3.55h-6.26l-.63-4.22q-.22-1.37.21-2.35.42-.98 1.18-1.77.76-.8 1.7-1.48.95-.69 1.78-1.45.83-.75 1.41-1.7.57-.94.57-2.24 0-1.29-.89-2.1-.89-.82-2.59-.82-1.33 0-2.24.26-.9.26-1.57.56-.67.29-1.17.55-.49.26-1.05.26-1.26 0-1.85-1.07m2.96 26.97q0-1.04.39-1.96.39-.93 1.05-1.61.67-.69 1.59-1.07.93-.39 2-.39 1.04 0 1.94.39.91.38 1.6 1.07.68.68 1.07 1.61.39.92.39 1.96 0 1.07-.39 1.98-.39.9-1.07 1.57-.69.67-1.6 1.06-.9.38-1.94.38-1.07 0-2-.38-.92-.39-1.59-1.06-.66-.67-1.05-1.57-.39-.91-.39-1.98m-12.69 11.58v-53.5h37.37v53.5zm2.4-50.99v48.44h32.31v-48.44zm47.81 12.44-2.44-3.89q2.11-1.7 4.79-2.87 2.68-1.16 6.34-1.16 2.59 0 4.67.7 2.07.7 3.51 1.98t2.2 3.07q.76 1.8.76 3.98 0 2.03-.52 3.5-.52 1.46-1.29 2.55-.78 1.09-1.7 1.87-.93.77-1.78 1.46-.85.68-1.5 1.35t-.83 1.48l-.82 3.55h-6.25l-.63-4.22q-.22-1.37.21-2.35.42-.98 1.18-1.77.76-.8 1.7-1.48.95-.69 1.78-1.45.83-.75 1.4-1.7.58-.94.58-2.24 0-1.29-.89-2.1-.89-.82-2.59-.82-1.33 0-2.24.26t-1.57.56q-.67.29-1.17.55t-1.05.26q-1.26 0-1.85-1.07m2.96 26.97q0-1.04.39-1.96.39-.93 1.05-1.61.67-.69 1.59-1.07.93-.39 2-.39 1.04 0 1.94.39.91.38 1.59 1.07.69.68 1.08 1.61.39.92.39 1.96 0 1.07-.39 1.98-.39.9-1.08 1.57-.68.67-1.59 1.06-.9.38-1.94.38-1.07 0-2-.38-.92-.39-1.59-1.06-.66-.67-1.05-1.57-.39-.91-.39-1.98m-12.69 11.58v-53.5h37.37v53.5zm2.4-50.99v48.44h32.3v-48.44z"/></svg>