<svg xmlns="http://www.w3.org/2000/svg" width="600" height="400" viewBox="0 0 600 400"><rect width="100%" height="100%" fill="#8b5cf6"/><path fill="#ffffff" d="M132.16 211.915q1.79 0 3.2-.6 1.42-.6 2.39-1.68.96-1.08 1.48-2.62t.52-3.45v-19.92h6.18v19.92q0 2.97-.95 5.49-.96 2.51-2.74 4.34t-4.33 2.85q-2.56 1.03-5.75 1.03-3.22 0-5.78-1.03-2.55-1.02-4.33-2.85t-2.74-4.34q-.95-2.52-.95-5.49v-19.92h6.18v19.9q0 1.91.52 3.45t1.5 2.63q.97 1.09 2.39 1.69 1.41.6 3.21.6m24.79-17.57.39 1.86q.71-.71 1.51-1.32.79-.61 1.68-1.04.88-.42 1.89-.66 1.02-.25 2.21-.25 1.93 0 3.43.66 1.49.65 2.49 1.84 1.01 1.18 1.52 2.83.52 1.64.52 3.62v15.02h-5.68v-15.02q0-2.16-.99-3.35-.99-1.18-3.01-1.18-1.47 0-2.76.67-1.29.66-2.44 1.81v17.07h-5.68v-23.6h3.47q1.11 0 1.45 1.04m35.83 15.57v-10.58q-.96-1.18-2.1-1.66t-2.45-.48q-1.29 0-2.32.48-1.04.48-1.77 1.46-.74.98-1.13 2.49-.39 1.5-.39 3.55 0 2.07.33 3.51.34 1.43.96 2.34t1.51 1.31q.9.41 2.01.41 1.77 0 3.01-.74 1.24-.73 2.34-2.09m0-27.19h5.69v34.18h-3.48q-1.12 0-1.42-1.03l-.49-2.28q-1.42 1.63-3.27 2.64-1.86 1.01-4.32 1.01-1.93 0-3.54-.8t-2.77-2.33-1.79-3.79q-.64-2.25-.64-5.15 0-2.62.72-4.88.71-2.25 2.04-3.91 1.34-1.65 3.2-2.58 1.86-.94 4.19-.94 1.97 0 3.38.63 1.4.62 2.5 1.68zm15.78 19.67h10.72q0-1.11-.31-2.08-.31-.98-.93-1.72-.62-.73-1.58-1.16-.95-.42-2.22-.42-2.46 0-3.87 1.4-1.42 1.4-1.81 3.98m14.49 3.42h-14.6q.14 1.82.64 3.14.51 1.33 1.34 2.19.82.86 1.96 1.29 1.14.42 2.52.42t2.38-.32 1.75-.71 1.31-.72q.56-.32 1.09-.32.72 0 1.06.53l1.63 2.07q-.94 1.1-2.11 1.85-1.18.75-2.45 1.2-1.28.45-2.6.63t-2.57.18q-2.46 0-4.57-.81-2.12-.82-3.68-2.42-1.57-1.6-2.46-3.95-.9-2.36-.9-5.46 0-2.42.78-4.55t2.24-3.7q1.46-1.58 3.57-2.5 2.1-.92 4.75-.92 2.23 0 4.12.72 1.88.71 3.24 2.08t2.13 3.36.77 4.54q0 1.29-.28 1.74-.28.44-1.06.44m10.61-11.08.34 2.67q1.1-2.12 2.62-3.33t3.59-1.21q1.63 0 2.62.72l-.37 4.25q-.11.42-.33.59t-.59.17q-.34 0-1.02-.11-.68-.12-1.32-.12-.94 0-1.68.28-.74.27-1.32.79-.59.52-1.04 1.26-.45.73-.84 1.67v14.54h-5.68v-23.6h3.34q.87 0 1.22.31.34.31.46 1.12m20.03 9.61h10.58l-4.05-11.06q-.3-.74-.62-1.75t-.64-2.18q-.3 1.17-.63 2.19-.32 1.03-.62 1.79zm8.44-20.7 13.06 33.26h-4.78q-.81 0-1.31-.4-.51-.4-.76-1l-2.48-6.79h-13.78l-2.49 6.79q-.18.53-.71.96-.53.44-1.31.44h-4.83l13.09-33.26zm20.63 11.09.35 2.67q1.1-2.12 2.62-3.33t3.59-1.21q1.63 0 2.62.72l-.37 4.25q-.12.42-.33.59-.22.17-.59.17-.35 0-1.02-.11-.68-.12-1.33-.12-.94 0-1.68.28-.73.27-1.32.79-.58.52-1.03 1.26-.45.73-.84 1.67v14.54h-5.68v-23.6h3.33q.88 0 1.22.31.35.31.46 1.12m17.83 22.17h-5.69v-23.6h3.48q1.1 0 1.45 1.04l.36 1.74q.63-.68 1.3-1.26.68-.58 1.45-.99t1.66-.65q.88-.25 1.94-.25 2.23 0 3.67 1.21t2.15 3.21q.55-1.17 1.38-2.01t1.82-1.37 2.1-.78q1.12-.26 2.25-.26 1.95 0 3.47.6t2.55 1.75q1.04 1.15 1.58 2.81.54 1.65.54 3.79v15.02h-5.68v-15.02q0-2.25-.99-3.39t-2.9-1.14q-.87 0-1.62.3t-1.31.86q-.57.57-.89 1.42t-.32 1.95v15.02h-5.7v-15.02q0-2.37-.96-3.45-.95-1.08-2.79-1.08-1.25 0-2.32.61-1.06.61-1.98 1.67zm43.28-23.97q2.62 0 4.77.86 2.15.85 3.68 2.41t2.36 3.82q.83 2.25.83 5.03 0 2.81-.83 5.06-.83 2.26-2.36 3.85-1.53 1.58-3.68 2.43t-4.77.85q-2.64 0-4.81-.85-2.16-.85-3.69-2.43-1.53-1.59-2.37-3.85-.84-2.25-.84-5.06 0-2.78.84-5.03.84-2.26 2.37-3.82t3.69-2.41q2.17-.86 4.81-.86m0 19.94q2.95 0 4.36-1.97 1.41-1.98 1.41-5.8t-1.41-5.82-4.36-2q-2.99 0-4.43 2.01-1.43 2.02-1.43 5.81 0 3.8 1.43 5.79 1.44 1.98 4.43 1.98m30.64-19.57h5.68v23.6h-3.47q-1.13 0-1.43-1.03l-.39-1.89q-1.45 1.47-3.2 2.38t-4.12.91q-1.93 0-3.41-.66-1.48-.65-2.5-1.85-1.01-1.19-1.53-2.84-.51-1.64-.51-3.62v-15h5.68v15q0 2.16 1 3.34 1 1.19 3 1.19 1.47 0 2.76-.66 1.29-.65 2.44-1.8zm16.3 1.43.35 2.67q1.1-2.12 2.62-3.33t3.59-1.21q1.63 0 2.62.72l-.37 4.25q-.11.42-.33.59t-.59.17q-.34 0-1.02-.11-.68-.12-1.32-.12-.95 0-1.68.28-.74.27-1.32.79-.59.52-1.04 1.26-.45.73-.84 1.67v14.54h-5.68v-23.6h3.34q.87 0 1.21.31.35.31.46 1.12m16.36-1.8-1.52-2.41q1.31-1.06 2.98-1.78 1.67-.73 3.94-.73 1.61 0 2.9.44t2.19 1.23q.89.79 1.36 1.91.48 1.11.48 2.47 0 1.27-.33 2.17-.32.91-.8 1.59t-1.06 1.16q-.57.49-1.1.91-.53.43-.94.84-.4.42-.51.92l-.51 2.21h-3.89l-.39-2.62q-.13-.85.13-1.46t.74-1.11q.47-.49 1.05-.92.59-.42 1.11-.89.52-.48.87-1.06.36-.59.36-1.39 0-.81-.55-1.31-.56-.51-1.61-.51-.83 0-1.4.16-.56.16-.97.35-.42.18-.73.34t-.65.16q-.78 0-1.15-.67m1.84 16.77q0-.64.24-1.22.24-.57.65-1 .42-.42.99-.67.58-.24 1.25-.24.64 0 1.2.24.57.25.99.67.43.43.67 1 .24.58.24 1.22 0 .67-.24 1.23t-.67.98q-.42.41-.99.65-.56.25-1.2.25-.67 0-1.25-.25-.57-.24-.99-.65-.41-.42-.65-.98t-.24-1.23m-7.89 7.2v-33.26h23.23v33.26zm1.49-31.69v30.1h20.08v-30.1zm47.38 3.35h-14.76v9.23h11.64v4.76h-11.64v9.4h14.76v4.95h-20.97v-33.26h20.97zm28.32 20.5q.5 0 .89.39l2.44 2.64q-2.02 2.51-4.98 3.84-2.95 1.34-7.09 1.34-3.71 0-6.66-1.27-2.96-1.26-5.05-3.52-2.09-2.25-3.21-5.38-1.11-3.13-1.11-6.83 0-3.75 1.19-6.86 1.2-3.12 3.37-5.37 2.17-2.26 5.19-3.51 3.01-1.26 6.67-1.26 3.63 0 6.45 1.2t4.79 3.13l-2.07 2.87q-.18.28-.47.49-.28.2-.79.2-.35 0-.71-.19-.37-.2-.81-.49-.44-.28-1.01-.63-.58-.34-1.33-.63-.76-.29-1.76-.48-1-.2-2.32-.2-2.23 0-4.08.79-1.85.8-3.18 2.3-1.34 1.51-2.07 3.68-.74 2.18-.74 4.96 0 2.81.79 4.99.8 2.19 2.15 3.68 1.36 1.5 3.2 2.29t3.96.79q1.26 0 2.29-.13 1.02-.14 1.88-.44t1.63-.77q.78-.47 1.53-1.16.23-.21.49-.34.25-.12.53-.12"/></svg>