<svg xmlns="http://www.w3.org/2000/svg" width="600" height="400" viewBox="0 0 600 400"><rect width="100%" height="100%" fill="#ec4899"/><path fill="#ffffff" d="M132.63 205.575h13.57l-5.19-14.19q-.39-.94-.8-2.24t-.82-2.8q-.39 1.5-.8 2.82-.41 1.31-.8 2.28zm10.83-26.55 16.75 42.66h-6.13q-1.04 0-1.69-.52-.64-.51-.97-1.28l-3.18-8.7h-17.68l-3.18 8.7q-.24.68-.92 1.24-.67.56-1.68.56h-6.19l16.78-42.66zm38.82 12.39h7.28v30.27h-4.45q-1.45 0-1.83-1.33l-.5-2.42q-1.86 1.89-4.1 3.06-2.24 1.16-5.28 1.16-2.48 0-4.38-.84t-3.2-2.37q-1.3-1.54-1.96-3.65-.67-2.11-.67-4.64v-19.24h7.29v19.24q0 2.77 1.28 4.29t3.85 1.52q1.89 0 3.54-.84t3.13-2.32zm33.48 21.3v-13.57q-1.24-1.5-2.7-2.12t-3.14-.62q-1.65 0-2.98.62t-2.27 1.87q-.95 1.25-1.45 3.19-.5 1.93-.5 4.55 0 2.66.43 4.5.43 1.85 1.22 3.01.8 1.17 1.95 1.68 1.15.52 2.57.52 2.27 0 3.86-.94 1.59-.95 3.01-2.69m0-34.87h7.29v43.84h-4.46q-1.44 0-1.83-1.33l-.62-2.92q-1.82 2.1-4.2 3.39-2.37 1.3-5.53 1.3-2.48 0-4.54-1.03-2.07-1.03-3.56-2.99-1.49-1.97-2.3-4.86t-.81-6.61q0-3.36.91-6.25.92-2.89 2.63-5.01 1.71-2.13 4.1-3.32 2.39-1.2 5.37-1.2 2.54 0 4.34.8 1.79.8 3.21 2.15zm14.72 13.57h7.32v30.27h-7.32zm8.32-8.82q0 .95-.38 1.77-.39.83-1.02 1.45-.64.62-1.49.99-.86.36-1.83.36-.94 0-1.78-.36-.85-.37-1.46-.99-.62-.62-.99-1.45-.37-.82-.37-1.77 0-.97.37-1.83.37-.85.99-1.47.61-.62 1.46-.99.84-.37 1.78-.37.97 0 1.83.37.85.37 1.49.99.63.62 1.02 1.47.38.86.38 1.83m13.72 17.67v13.57q1.24 1.51 2.7 2.13t3.08.62q1.68 0 3.02-.61 1.35-.6 2.29-1.89.94-1.28 1.45-3.27.5-1.99.5-4.77 0-4.98-1.66-7.21-1.65-2.23-4.74-2.23-2.1 0-3.66.96-1.57.96-2.98 2.7m0-22.42v17.29q1.83-1.92 4.05-3.05 2.23-1.14 5.09-1.14 2.63 0 4.74 1.03 2.11 1.04 3.6 2.97t2.28 4.67q.8 2.75.8 6.17 0 3.69-.92 6.7-.91 3-2.61 5.14-1.69 2.14-4.08 3.32t-5.31 1.18q-1.42 0-2.57-.28t-2.12-.78q-.98-.5-1.79-1.22-.81-.73-1.55-1.61l-.32 2.03q-.18.77-.6 1.1-.43.32-1.17.32h-4.81v-43.84zm26.28 0h7.29v43.84h-7.29zm20.33 25.23h13.74q0-1.42-.39-2.67-.4-1.26-1.2-2.2-.79-.95-2.02-1.49-1.22-.55-2.85-.55-3.15 0-4.97 1.8-1.81 1.8-2.31 5.11m18.58 4.39h-18.73q.18 2.33.83 4.03.65 1.69 1.71 2.8t2.52 1.65q1.46.55 3.23.55t3.05-.42q1.29-.41 2.25-.91.95-.5 1.68-.91.72-.42 1.4-.42.91 0 1.35.68l2.1 2.66q-1.21 1.41-2.71 2.37-1.51.96-3.15 1.54-1.63.57-3.33.81-1.7.23-3.29.23-3.16 0-5.87-1.04-2.71-1.05-4.72-3.1t-3.16-5.08q-1.15-3.02-1.15-7 0-3.1 1.01-5.83 1-2.73 2.87-4.75 1.88-2.02 4.58-3.2 2.69-1.18 6.09-1.18 2.86 0 5.28.92 2.42.91 4.16 2.67 1.74 1.75 2.73 4.3.98 2.55.98 5.83 0 1.65-.35 2.23-.35.57-1.36.57m12.57-16.52-1.95-3.1q1.68-1.35 3.82-2.28t5.06-.93q2.07 0 3.72.56t2.8 1.58q1.15 1.01 1.76 2.45.6 1.43.6 3.17 0 1.62-.41 2.78-.41 1.17-1.03 2.04t-1.36 1.49-1.42 1.16q-.68.55-1.19 1.08-.52.53-.67 1.18l-.64 2.83h-4.99l-.5-3.36q-.18-1.09.16-1.87t.95-1.42q.6-.63 1.35-1.18.75-.54 1.42-1.15.66-.6 1.12-1.36.46-.75.46-1.78t-.71-1.68-2.07-.65q-1.06 0-1.78.2-.72.21-1.26.45-.53.23-.92.44-.4.21-.85.21-1 0-1.47-.86m2.36 21.51q0-.83.31-1.57.31-.73.84-1.28t1.27-.86 1.59-.31q.83 0 1.55.31t1.27.86q.54.55.85 1.28.31.74.31 1.57 0 .85-.31 1.57-.31.73-.85 1.26-.55.53-1.27.84t-1.55.31q-.85 0-1.59-.31t-1.27-.84-.84-1.26q-.31-.72-.31-1.57m-10.12 9.23v-42.66h29.8v42.66zm1.92-40.65v38.61h25.75v-38.61zm38.11 9.91-1.94-3.1q1.68-1.35 3.82-2.28 2.13-.93 5.06-.93 2.06 0 3.71.56t2.8 1.58q1.16 1.01 1.76 2.45.61 1.43.61 3.17 0 1.62-.42 2.78-.41 1.17-1.03 2.04t-1.36 1.49q-.73.62-1.41 1.16-.68.55-1.2 1.08-.51.53-.66 1.18l-.65 2.83h-4.99l-.5-3.36q-.17-1.09.16-1.87.34-.78.95-1.42.6-.63 1.36-1.18.75-.54 1.41-1.15.67-.6 1.12-1.36.46-.75.46-1.78t-.71-1.68-2.06-.65q-1.07 0-1.79.2-.72.21-1.25.45-.53.23-.93.44t-.84.21q-1 0-1.48-.86m2.36 21.51q0-.83.31-1.57.31-.73.84-1.28t1.27-.86 1.59-.31q.83 0 1.55.31.73.31 1.27.86.55.55.86 1.28.31.74.31 1.57 0 .85-.31 1.57-.31.73-.86 1.26-.54.53-1.27.84-.72.31-1.55.31-.85 0-1.59-.31t-1.27-.84-.84-1.26q-.31-.72-.31-1.57m-10.12 9.23v-42.66h29.8v42.66zm1.92-40.65v38.61h25.76v-38.61zm38.12 9.91-1.95-3.1q1.68-1.35 3.82-2.28t5.06-.93q2.06 0 3.72.56 1.65.56 2.8 1.58 1.15 1.01 1.75 2.45.61 1.43.61 3.17 0 1.62-.41 2.78-.42 1.17-1.04 2.04t-1.35 1.49q-.74.62-1.42 1.16-.68.55-1.2 1.08-.51.53-.66 1.18l-.65 2.83h-4.98l-.5-3.36q-.18-1.09.16-1.87t.94-1.42q.61-.63 1.36-1.18.75-.54 1.41-1.15.67-.6 1.13-1.36.45-.75.45-1.78t-.71-1.68q-.7-.65-2.06-.65-1.06 0-1.79.2-.72.21-1.25.45-.53.23-.93.44t-.84.21q-1 0-1.47-.86m2.36 21.51q0-.83.31-1.57.31-.73.84-1.28t1.27-.86q.73-.31 1.59-.31.82 0 1.55.31.72.31 1.27.86.54.55.85 1.28.31.74.31 1.57 0 .85-.31 1.57-.31.73-.85 1.26-.55.53-1.27.84-.73.31-1.55.31-.86 0-1.59-.31-.74-.31-1.27-.84t-.84-1.26q-.31-.72-.31-1.57m-10.12 9.23v-42.66h29.79v42.66zm1.91-40.65v38.61h25.76v-38.61zm38.12 9.91-1.95-3.1q1.68-1.35 3.82-2.28t5.06-.93q2.07 0 3.72.56t2.8 1.58q1.15 1.01 1.76 2.45.6 1.43.6 3.17 0 1.62-.41 2.78-.41 1.17-1.03 2.04t-1.36 1.49-1.42 1.16q-.68.55-1.19 1.08-.52.53-.67 1.18l-.64 2.83h-4.99l-.5-3.36q-.18-1.09.16-1.87t.94-1.42q.61-.63 1.36-1.18.75-.54 1.42-1.15.66-.6 1.12-1.36.46-.75.46-1.78t-.71-1.68-2.07-.65q-1.06 0-1.78.2-.72.21-1.26.45-.53.23-.93.44-.39.21-.84.21-1 0-1.47-.86m2.36 21.51q0-.83.31-1.57.31-.73.84-1.28t1.27-.86 1.59-.31q.83 0 1.55.31t1.27.86q.54.55.85 1.28.31.74.31 1.57 0 .85-.31 1.57-.31.73-.85 1.26-.55.53-1.27.84t-1.55.31q-.85 0-1.59-.31t-1.27-.84-.84-1.26q-.31-.72-.31-1.57m-10.12 9.23v-42.66h29.8v42.66zm1.92-40.65v38.61h25.75v-38.61zm38.11 9.91-1.94-3.1q1.68-1.35 3.82-2.28 2.13-.93 5.05-.93 2.07 0 3.72.56t2.8 1.58q1.15 1.01 1.76 2.45.6 1.43.6 3.17 0 1.62-.41 2.78-.41 1.17-1.03 2.04t-1.36 1.49-1.41 1.16q-.68.55-1.2 1.08t-.66 1.18l-.65 2.83h-4.99l-.5-3.36q-.18-1.09.16-1.87t.95-1.42q.6-.63 1.35-1.18.76-.54 1.42-1.15.66-.6 1.12-1.36.46-.75.46-1.78t-.71-1.68-2.06-.65q-1.07 0-1.79.2-.72.21-1.25.45-.53.23-.93.44t-.84.21q-1.01 0-1.48-.86m2.36 21.51q0-.83.31-1.57.31-.73.84-1.28t1.27-.86 1.59-.31q.83 0 1.55.31.73.31 1.27.86.55.55.86 1.28.31.74.31 1.57 0 .85-.31 1.57-.31.73-.86 1.26-.54.53-1.27.84-.72.31-1.55.31-.85 0-1.59-.31t-1.27-.84-.84-1.26q-.31-.72-.31-1.57m-10.12 9.23v-42.66h29.8v42.66zm1.92-40.65v38.61h25.75v-38.61z"/></svg>