<svg xmlns="http://www.w3.org/2000/svg" width="600" height="400" viewBox="0 0 600 400"><rect width="100%" height="100%" fill="#14b8a6"/><path fill="#ffffff" d="M150.545 184.22h-19.9v13.27h16.8v6.66h-16.8v18.26h-8.37v-44.83h28.27zm19.69 5.89q3.53 0 6.43 1.14 2.9 1.15 4.96 3.26t3.18 5.15q1.11 3.03 1.11 6.79 0 3.78-1.11 6.82-1.12 3.03-3.18 5.17t-4.96 3.29q-2.9 1.14-6.43 1.14-3.57 0-6.48-1.14-2.91-1.15-4.98-3.29-2.06-2.14-3.19-5.17-1.13-3.04-1.13-6.82 0-3.76 1.13-6.79 1.13-3.04 3.19-5.15 2.07-2.11 4.98-3.26 2.91-1.14 6.48-1.14m0 26.88q3.97 0 5.87-2.67 1.91-2.67 1.91-7.81 0-5.15-1.91-7.85-1.9-2.69-5.87-2.69-4.03 0-5.97 2.71t-1.94 7.83q0 5.11 1.94 7.79 1.94 2.69 5.97 2.69m28.3-24.46.47 3.59q1.48-2.85 3.53-4.48t4.84-1.63q2.2 0 3.53.97l-.5 5.73q-.15.56-.44.79-.3.23-.8.23-.46 0-1.37-.15-.92-.16-1.79-.16-1.27 0-2.26.38-.99.37-1.78 1.07-.79.69-1.4 1.68-.6 1-1.13 2.27v19.59h-7.66V190.6h4.5q1.18 0 1.64.42.47.42.62 1.51m26.97 30.38q-4.15 0-6.37-2.34t-2.22-6.47v-17.76h-3.25q-.62 0-1.05-.4-.44-.41-.44-1.21v-3.04l5.12-.84 1.61-8.68q.15-.62.59-.96.43-.34 1.11-.34h3.97v10.01h8.5v5.46h-8.5v17.24q0 1.48.73 2.32t2 .84q.71 0 1.19-.17t.84-.36.64-.36q.27-.17.55-.17.34 0 .56.17t.47.52l2.29 3.71q-1.67 1.4-3.84 2.11-2.17.72-4.5.72m32.21-32.31h7.66v31.81h-4.68q-1.52 0-1.93-1.4l-.52-2.54q-1.96 1.99-4.31 3.21-2.36 1.23-5.55 1.23-2.6 0-4.6-.89-2-.88-3.37-2.49-1.36-1.62-2.06-3.83-.7-2.22-.7-4.88V190.6h7.66v20.22q0 2.91 1.35 4.51 1.35 1.59 4.04 1.59 1.99 0 3.72-.88 1.74-.88 3.29-2.43zm21.86 1.4.52 2.51q.96-.96 2.03-1.78t2.27-1.4q1.19-.57 2.55-.9 1.37-.32 2.98-.32 2.6 0 4.62.88 2.01.88 3.36 2.48t2.05 3.81q.7 2.22.7 4.89v20.24h-7.66v-20.24q0-2.92-1.33-4.51-1.34-1.6-4.07-1.6-1.98 0-3.72.9-1.73.9-3.28 2.45v23h-7.66V190.6h4.68q1.49 0 1.96 1.4m34.37 10.85h14.45q0-1.49-.42-2.81-.42-1.31-1.25-2.31-.84-.99-2.13-1.56-1.28-.58-2.99-.58-3.32 0-5.22 1.9-1.91 1.89-2.44 5.36m19.53 4.62h-19.68q.19 2.45.87 4.23t1.8 2.94q1.11 1.17 2.65 1.74 1.53.57 3.39.57t3.21-.43 2.36-.96q1-.53 1.76-.96.76-.44 1.47-.44.97 0 1.43.72l2.2 2.79q-1.27 1.49-2.85 2.49-1.58 1.01-3.3 1.61-1.72.61-3.5.86-1.79.24-3.46.24-3.32 0-6.17-1.1t-4.96-3.25-3.32-5.33-1.21-7.37q0-3.25 1.06-6.12 1.05-2.86 3.02-4.99 1.97-2.12 4.81-3.36 2.83-1.24 6.4-1.24 3 0 5.55.96 2.54.96 4.37 2.8 1.83 1.85 2.86 4.53 1.04 2.68 1.04 6.12 0 1.74-.37 2.34-.37.61-1.43.61m17.92-22.94-1.58 9.33q1.49-.31 2.85-.45 1.37-.14 2.64-.14 3.53 0 6.23 1.05 2.7 1.06 4.53 2.92 1.82 1.86 2.75 4.35.93 2.5.93 5.38 0 3.57-1.25 6.51-1.26 2.95-3.49 5.04t-5.28 3.24q-3.06 1.15-6.65 1.15-2.11 0-4-.44-1.89-.43-3.55-1.16t-3.07-1.67q-1.41-.95-2.53-2l2.36-3.26q.74-1.05 1.95-1.05.78 0 1.58.49.81.5 1.85 1.09t2.45 1.08q1.41.5 3.39.5 2.11 0 3.72-.68 1.61-.69 2.68-1.91t1.61-2.91q.55-1.69.55-3.68 0-3.65-2.13-5.72-2.12-2.06-6.27-2.06-3.2 0-6.55 1.18l-4.77-1.36 3.72-21.77h22.13v3.26q0 1.64-1.02 2.66-1.02 1.03-3.47 1.03zm56.21 15.47q0 5.86-1.26 10.18t-3.47 7.15q-2.22 2.82-5.24 4.2t-6.53 1.38q-3.5 0-6.49-1.38t-5.19-4.2q-2.2-2.83-3.44-7.15t-1.24-10.18q0-5.89 1.24-10.2t3.44-7.13 5.19-4.2 6.49-1.38q3.51 0 6.53 1.38t5.24 4.2q2.21 2.82 3.47 7.13t1.26 10.2m-7.91 0q0-4.87-.71-8.06-.72-3.2-1.91-5.09t-2.74-2.65-3.23-.76q-1.64 0-3.17.76-1.54.76-2.72 2.65-1.17 1.89-1.87 5.09-.7 3.19-.7 8.06 0 4.86.7 8.06.7 3.19 1.87 5.08 1.18 1.89 2.72 2.65 1.53.76 3.17.76 1.68 0 3.23-.76t2.74-2.65 1.91-5.08q.71-3.2.71-8.06m43.87 0q0 5.86-1.26 10.18t-3.47 7.15q-2.22 2.82-5.24 4.2t-6.53 1.38q-3.5 0-6.49-1.38t-5.19-4.2q-2.2-2.83-3.44-7.15t-1.24-10.18q0-5.89 1.24-10.2t3.44-7.13 5.19-4.2 6.49-1.38q3.51 0 6.53 1.38t5.24 4.2q2.21 2.82 3.47 7.13t1.26 10.2m-7.91 0q0-4.87-.71-8.06-.72-3.2-1.91-5.09t-2.74-2.65-3.23-.76q-1.64 0-3.17.76-1.54.76-2.72 2.65-1.17 1.89-1.87 5.09-.7 3.19-.7 8.06 0 4.86.7 8.06.7 3.19 1.87 5.08 1.18 1.89 2.72 2.65 1.53.76 3.17.76 1.68 0 3.23-.76t2.74-2.65 1.91-5.08q.71-3.2.71-8.06m18.91-9.89-2.05-3.26q1.77-1.42 4.02-2.4t5.32-.98q2.17 0 3.9.59 1.74.59 2.95 1.66t1.84 2.57q.64 1.51.64 3.34 0 1.7-.44 2.93-.43 1.22-1.08 2.14-.65.91-1.43 1.56-.77.65-1.49 1.23-.71.57-1.25 1.13t-.7 1.24l-.68 2.97h-5.24l-.53-3.53q-.18-1.15.17-1.97.36-.82 1-1.49.63-.66 1.42-1.24.79-.57 1.49-1.21.7-.63 1.18-1.42t.48-1.88q0-1.08-.75-1.77-.74-.68-2.17-.68-1.11 0-1.87.22t-1.32.46q-.56.25-.98.47-.41.22-.88.22-1.05 0-1.55-.9m2.48 22.6q0-.87.33-1.65.32-.77.88-1.34.56-.58 1.33-.9.78-.33 1.68-.33.86 0 1.62.33.76.32 1.34.9.57.57.9 1.34.32.78.32 1.65 0 .9-.32 1.66-.33.75-.9 1.31-.58.56-1.34.89-.76.32-1.62.32-.9 0-1.68-.32-.77-.33-1.33-.89t-.88-1.31q-.33-.76-.33-1.66m-10.63 9.7v-44.83h31.31v44.83zm2.01-42.72v40.58h27.07v-40.58z"/></svg>