<svg xmlns="http://www.w3.org/2000/svg" width="600" height="400" viewBox="0 0 600 400"><rect width="100%" height="100%" fill="#f97316"/><path fill="#ffffff" d="M156.885 174.05h9.85v52.78h-9.85v-23.07h-24.79v23.07h-9.85v-52.78h9.85v22.7h24.79zm20.47 15.33h9.05v37.45h-9.05zm10.29-10.91q0 1.17-.47 2.19t-1.26 1.79q-.78.76-1.84 1.22t-2.27.46q-1.16 0-2.2-.46t-1.81-1.22q-.77-.77-1.22-1.79-.46-1.02-.46-2.19 0-1.21.46-2.27.45-1.05 1.22-1.82t1.81-1.22q1.04-.46 2.2-.46 1.21 0 2.27.46 1.06.45 1.84 1.22.79.77 1.26 1.82.47 1.06.47 2.27m8.07-5.88h9.02v54.24h-9.02zm30.52 54.82q-4.9 0-7.51-2.75-2.61-2.76-2.61-7.61v-20.92h-3.83q-.73 0-1.24-.47-.51-.48-.51-1.42v-3.58l6.02-.99 1.9-10.22q.18-.73.69-1.13.52-.4 1.32-.4h4.67v11.79h10v6.42h-10v20.3q0 1.75.86 2.74.86.98 2.35.98.84 0 1.41-.2.56-.2.98-.42t.75-.42.66-.2q.4 0 .66.2.25.2.54.6l2.7 4.38q-1.97 1.65-4.52 2.48-2.56.84-5.29.84m31.24-38.61q4.16 0 7.57 1.35 3.42 1.35 5.84 3.83 2.43 2.48 3.74 6.06 1.32 3.58 1.32 7.99 0 4.46-1.32 8.03-1.31 3.58-3.74 6.1-2.42 2.52-5.84 3.87-3.41 1.35-7.57 1.35-4.2 0-7.63-1.35t-5.86-3.87q-2.42-2.52-3.76-6.1-1.33-3.57-1.33-8.03 0-4.41 1.33-7.99 1.34-3.58 3.76-6.06 2.43-2.48 5.86-3.83t7.63-1.35m0 31.64q4.67 0 6.92-3.14 2.24-3.14 2.24-9.19 0-6.06-2.24-9.24-2.25-3.17-6.92-3.17-4.75 0-7.03 3.19t-2.28 9.22q0 6.02 2.28 9.18 2.28 3.15 7.03 3.15m33.18-29.42.62 2.96q1.13-1.13 2.39-2.1t2.66-1.64q1.41-.68 3.01-1.06 1.61-.38 3.51-.38 3.06 0 5.44 1.04 2.37 1.04 3.96 2.92t2.41 4.49.82 5.75v23.83h-9.02V203q0-3.44-1.57-5.32-1.57-1.87-4.78-1.87-2.33 0-4.38 1.05-2.04 1.06-3.87 2.89v27.08h-9.01v-37.45h5.51q1.75 0 2.3 1.64m40.04-2.22-2.41-3.84q2.08-1.67 4.73-2.82 2.64-1.15 6.26-1.15 2.55 0 4.59.69 2.05.69 3.47 1.95 1.43 1.26 2.17 3.03.75 1.77.75 3.93 0 2-.51 3.44-.51 1.45-1.28 2.52-.76 1.08-1.68 1.85-.91.76-1.75 1.44-.84.67-1.48 1.33-.63.66-.82 1.46l-.8 3.5h-6.17l-.62-4.16q-.22-1.35.2-2.31.42-.97 1.17-1.76.75-.78 1.68-1.46.93-.67 1.75-1.42t1.39-1.68q.56-.93.56-2.21 0-1.27-.87-2.08-.88-.8-2.56-.8-1.31 0-2.21.26-.89.25-1.55.54-.65.29-1.15.55-.49.26-1.04.26-1.24 0-1.82-1.06m2.92 26.61q0-1.03.38-1.94t1.04-1.59q.66-.67 1.57-1.06.91-.38 1.97-.38 1.02 0 1.92.38.89.39 1.57 1.06.67.68 1.06 1.59.38.91.38 1.94 0 1.05-.38 1.95-.39.89-1.06 1.55-.68.66-1.57 1.04-.9.38-1.92.38-1.06 0-1.97-.38t-1.57-1.04-1.04-1.55q-.38-.9-.38-1.95m-12.52 11.42v-52.78h36.86v52.78zm2.37-50.3v47.78h31.87v-47.78zm47.16 12.27-2.41-3.84q2.08-1.67 4.73-2.82 2.64-1.15 6.26-1.15 2.55 0 4.6.69 2.04.69 3.46 1.95 1.43 1.26 2.18 3.03.74 1.77.74 3.93 0 2-.51 3.44-.51 1.45-1.28 2.52-.76 1.08-1.67 1.85-.92.76-1.76 1.44-.84.67-1.47 1.33-.64.66-.83 1.46l-.8 3.5h-6.17l-.62-4.16q-.22-1.35.2-2.31.42-.97 1.17-1.76.75-.78 1.68-1.46.93-.67 1.75-1.42t1.39-1.68q.56-.93.56-2.21 0-1.27-.87-2.08-.88-.8-2.56-.8-1.31 0-2.2.26-.9.25-1.56.54-.65.29-1.15.55-.49.26-1.04.26-1.24 0-1.82-1.06m2.92 26.61q0-1.03.38-1.94.39-.91 1.04-1.59.66-.67 1.57-1.06.91-.38 1.97-.38 1.03 0 1.92.38.89.39 1.57 1.06.67.68 1.06 1.59.38.91.38 1.94 0 1.05-.38 1.95-.39.89-1.06 1.55-.68.66-1.57 1.04t-1.92.38q-1.06 0-1.97-.38t-1.57-1.04q-.65-.66-1.04-1.55-.38-.9-.38-1.95m-12.52 11.42v-52.78h36.86v52.78zm2.37-50.3v47.78h31.87v-47.78zm47.16 12.27-2.41-3.84q2.08-1.67 4.73-2.82 2.64-1.15 6.26-1.15 2.55 0 4.6.69 2.04.69 3.46 1.95 1.43 1.26 2.18 3.03.74 1.77.74 3.93 0 2-.51 3.44-.51 1.45-1.27 2.52-.77 1.08-1.68 1.85-.92.76-1.76 1.44-.83.67-1.47 1.33t-.82 1.46l-.81 3.5h-6.17l-.62-4.16q-.22-1.35.2-2.31.42-.97 1.17-1.76.75-.78 1.68-1.46.93-.67 1.75-1.42t1.39-1.68.57-2.21q0-1.27-.88-2.08-.88-.8-2.56-.8-1.31 0-2.2.26-.9.25-1.55.54-.66.29-1.15.55-.5.26-1.04.26-1.25 0-1.83-1.06m2.92 26.61q0-1.03.38-1.94.39-.91 1.04-1.59.66-.67 1.57-1.06.92-.38 1.97-.38 1.03 0 1.92.38.89.39 1.57 1.06.68.68 1.06 1.59t.38 1.94q0 1.05-.38 1.95-.38.89-1.06 1.55t-1.57 1.04-1.92.38q-1.05 0-1.97-.38-.91-.38-1.57-1.04-.65-.66-1.04-1.55-.38-.9-.38-1.95m-12.52 11.42v-52.78h36.87v52.78zm2.37-50.3v47.78h31.87v-47.78zm47.16 12.27-2.41-3.84q2.08-1.67 4.73-2.82t6.26-1.15q2.55 0 4.6.69 2.04.69 3.47 1.95 1.42 1.26 2.17 3.03t.75 3.93q0 2-.52 3.44-.51 1.45-1.27 2.52-.77 1.08-1.68 1.85-.91.76-1.75 1.44-.84.67-1.48 1.33t-.82 1.46l-.81 3.5h-6.17l-.62-4.16q-.21-1.35.2-2.31.42-.97 1.17-1.76.75-.78 1.68-1.46.93-.67 1.75-1.42.83-.75 1.39-1.68.57-.93.57-2.21 0-1.27-.88-2.08-.88-.8-2.55-.8-1.32 0-2.21.26-.9.25-1.55.54-.66.29-1.15.55-.5.26-1.04.26-1.24 0-1.83-1.06m2.92 26.61q0-1.03.38-1.94.39-.91 1.04-1.59.66-.67 1.57-1.06.92-.38 1.98-.38 1.02 0 1.91.38.9.39 1.57 1.06.68.68 1.06 1.59t.38 1.94q0 1.05-.38 1.95-.38.89-1.06 1.55-.67.66-1.57 1.04-.89.38-1.91.38-1.06 0-1.98-.38-.91-.38-1.57-1.04-.65-.66-1.04-1.55-.38-.9-.38-1.95m-12.52 11.42v-52.78h36.87v52.78zm2.37-50.3v47.78h31.87v-47.78z"/></svg>