<svg xmlns="http://www.w3.org/2000/svg" width="600" height="400" viewBox="0 0 600 400"><rect width="100%" height="100%" fill="#3b82f6"/><path fill="#ffffff" d="m150.39 181.215-2.15 4.06q-.38.68-.81.98t-1.07.3q-.68 0-1.46-.49-.78-.5-1.87-1.11-1.09-.6-2.55-1.1-1.45-.5-3.44-.5-1.79 0-3.13.44-1.35.43-2.26 1.2-.91.76-1.36 1.84-.45 1.07-.45 2.35 0 1.63.92 2.72.91 1.09 2.41 1.85 1.51.77 3.43 1.38t3.93 1.3q2.02.68 3.94 1.6 1.92.91 3.42 2.3 1.51 1.39 2.42 3.41.91 2.01.91 4.89 0 3.14-1.07 5.88-1.07 2.73-3.14 4.76-2.06 2.04-5.04 3.2-2.97 1.17-6.81 1.17-2.21 0-4.36-.43-2.14-.43-4.11-1.23t-3.69-1.92q-1.73-1.12-3.08-2.5l2.53-4.13q.32-.44.83-.75.52-.3 1.09-.3.8 0 1.73.65.93.66 2.21 1.46t2.99 1.46q1.71.65 4.11.65 3.68 0 5.7-1.74 2.01-1.75 2.01-5.01 0-1.82-.91-2.98-.91-1.15-2.41-1.93-1.51-.79-3.43-1.33t-3.9-1.18q-1.99-.64-3.91-1.54t-3.42-2.34-2.42-3.6q-.91-2.16-.91-5.32 0-2.53 1.01-4.93t2.93-4.26q1.92-1.85 4.73-2.97 2.82-1.12 6.47-1.12 4.09 0 7.55 1.28t5.89 3.58m52.45 18.78q0 5.09-1.68 9.43-1.68 4.33-4.76 7.5-3.07 3.17-7.39 4.95-4.32 1.77-9.6 1.77-5.25 0-9.57-1.77-4.32-1.78-7.4-4.95-3.09-3.17-4.79-7.5-1.69-4.34-1.69-9.43 0-5.08 1.69-9.42 1.7-4.34 4.79-7.5 3.08-3.17 7.4-4.95 4.32-1.77 9.57-1.77 3.52 0 6.63.81 3.1.82 5.69 2.31 2.59 1.48 4.66 3.61 2.06 2.13 3.5 4.75 1.44 2.63 2.19 5.7.76 3.07.76 6.46m-8.8 0q0-3.8-1.03-6.83-1.02-3.02-2.91-5.13-1.89-2.12-4.59-3.24-2.71-1.12-6.1-1.12t-6.09 1.12q-2.71 1.12-4.61 3.24-1.91 2.11-2.93 5.13-1.02 3.03-1.02 6.83 0 3.81 1.02 6.84 1.02 3.02 2.93 5.12 1.9 2.09 4.61 3.21 2.7 1.12 6.09 1.12t6.1-1.12q2.7-1.12 4.59-3.21 1.89-2.1 2.91-5.12 1.03-3.03 1.03-6.84m47.8-23.13h7.59v46.27h-4.42q-1.02 0-1.71-.34-.69-.33-1.33-1.13l-24.16-30.85q.19 2.11.19 3.9v28.42h-7.58v-46.27h4.51q.55 0 .95.05.4.04.7.19.3.14.59.41.29.28.64.72l24.26 30.98q-.1-1.12-.16-2.21-.07-1.09-.07-2.01zm62.02 23.13q0 5.09-1.68 9.43-1.68 4.33-4.75 7.5t-7.39 4.95q-4.32 1.77-9.6 1.77-5.25 0-9.57-1.77-4.32-1.78-7.41-4.95t-4.78-7.5q-1.7-4.34-1.7-9.43 0-5.08 1.7-9.42 1.69-4.34 4.78-7.5 3.09-3.17 7.41-4.95 4.32-1.77 9.57-1.77 3.52 0 6.62.81 3.1.82 5.7 2.31 2.59 1.48 4.65 3.61 2.07 2.13 3.51 4.75 1.44 2.63 2.19 5.7t.75 6.46m-8.8 0q0-3.8-1.02-6.83-1.03-3.02-2.92-5.13-1.88-2.12-4.59-3.24-2.7-1.12-6.09-1.12-3.4 0-6.1 1.12t-4.61 3.24q-1.9 2.11-2.93 5.13-1.02 3.03-1.02 6.83 0 3.81 1.02 6.84 1.03 3.02 2.93 5.12 1.91 2.09 4.61 3.21t6.1 1.12q3.39 0 6.09-1.12 2.71-1.12 4.59-3.21 1.89-2.1 2.92-5.12 1.02-3.03 1.02-6.84m43.17-18.78-2.15 4.06q-.38.68-.81.98t-1.07.3q-.68 0-1.46-.49-.78-.5-1.87-1.11-1.09-.6-2.55-1.1-1.45-.5-3.44-.5-1.79 0-3.13.44-1.35.43-2.26 1.2-.91.76-1.36 1.84-.45 1.07-.45 2.35 0 1.63.92 2.72.91 1.09 2.41 1.85 1.51.77 3.43 1.38t3.93 1.3q2.02.68 3.94 1.6 1.92.91 3.42 2.3 1.51 1.39 2.42 3.41.91 2.01.91 4.89 0 3.14-1.07 5.88-1.07 2.73-3.14 4.76-2.06 2.04-5.04 3.2-2.97 1.17-6.81 1.17-2.21 0-4.36-.43-2.14-.43-4.11-1.23t-3.69-1.92q-1.73-1.12-3.08-2.5l2.53-4.13q.32-.44.83-.75.52-.3 1.09-.3.8 0 1.73.65.93.66 2.21 1.46t2.99 1.46q1.71.65 4.11.65 3.68 0 5.7-1.74 2.01-1.75 2.01-5.01 0-1.82-.91-2.98-.91-1.15-2.41-1.93-1.51-.79-3.43-1.33t-3.9-1.18q-1.99-.64-3.91-1.54t-3.42-2.34-2.42-3.6q-.91-2.16-.91-5.32 0-2.53 1.01-4.93t2.93-4.26q1.92-1.85 4.73-2.97 2.82-1.12 6.47-1.12 4.09 0 7.55 1.28t5.89 3.58m12.93 8.58-2.12-3.36q1.83-1.48 4.15-2.48 2.32-1.01 5.49-1.01 2.24 0 4.03.61 1.79.6 3.04 1.71 1.25 1.1 1.9 2.65.66 1.56.66 3.44 0 1.76-.45 3.03-.45 1.26-1.12 2.21-.67.94-1.47 1.61t-1.54 1.27q-.73.59-1.29 1.16-.56.58-.72 1.28l-.71 3.08h-5.41l-.54-3.65q-.19-1.19.18-2.03.36-.85 1.02-1.54t1.47-1.28q.82-.59 1.54-1.25.72-.65 1.21-1.47.5-.82.5-1.94t-.77-1.82-2.24-.7q-1.15 0-1.93.22-.79.22-1.36.48-.58.26-1.01.48t-.91.22q-1.09 0-1.6-.92m2.56 23.32q0-.89.33-1.69.34-.8.91-1.39.58-.6 1.38-.93.8-.34 1.73-.34.89 0 1.68.34.78.33 1.37.93.6.59.93 1.39.34.8.34 1.69 0 .93-.34 1.72-.33.78-.93 1.36-.59.57-1.37.91-.79.33-1.68.33-.93 0-1.73-.33-.8-.34-1.38-.91-.57-.58-.91-1.36-.33-.79-.33-1.72m-10.98 10.02v-46.27h32.32v46.27zm2.08-44.1v41.89h27.94v-41.89zm41.34 10.76-2.11-3.36q1.83-1.48 4.15-2.48 2.32-1.01 5.48-1.01 2.24 0 4.04.61 1.79.6 3.04 1.71 1.24 1.1 1.9 2.65.66 1.56.66 3.44 0 1.76-.45 3.03-.45 1.26-1.12 2.21-.67.94-1.47 1.61t-1.54 1.27q-.74.59-1.3 1.16-.56.58-.72 1.28l-.7 3.08h-5.41l-.54-3.65q-.19-1.19.17-2.03.37-.85 1.03-1.54.65-.69 1.47-1.28t1.54-1.25q.72-.65 1.21-1.47.5-.82.5-1.94t-.77-1.82-2.24-.7q-1.15 0-1.94.22-.78.22-1.36.48-.57.26-1 .48-.44.22-.92.22-1.08 0-1.6-.92m2.56 23.32q0-.89.34-1.69t.91-1.39q.58-.6 1.38-.93.8-.34 1.73-.34.89 0 1.68.34.78.33 1.37.93.59.59.93 1.39t.34 1.69q0 .93-.34 1.72-.34.78-.93 1.36-.59.57-1.37.91-.79.33-1.68.33-.93 0-1.73-.33-.8-.34-1.38-.91-.57-.58-.91-1.36-.34-.79-.34-1.72m-10.97 10.02v-46.27h32.32v46.27zm2.08-44.1v41.89h27.93v-41.89zm41.34 10.76-2.11-3.36q1.82-1.48 4.14-2.48 2.32-1.01 5.49-1.01 2.24 0 4.03.61 1.8.6 3.04 1.71 1.25 1.1 1.91 2.65.65 1.56.65 3.44 0 1.76-.44 3.03-.45 1.26-1.12 2.21-.68.94-1.48 1.61t-1.53 1.27q-.74.59-1.3 1.16-.56.58-.72 1.28l-.7 3.08h-5.41l-.54-3.65q-.2-1.19.17-2.03.37-.85 1.03-1.54.65-.69 1.47-1.28.81-.59 1.53-1.25.72-.65 1.22-1.47t.5-1.94-.77-1.82-2.24-.7q-1.15 0-1.94.22-.78.22-1.36.48-.57.26-1.01.48-.43.22-.91.22-1.09 0-1.6-.92m2.56 23.32q0-.89.34-1.69.33-.8.91-1.39.58-.6 1.38-.93.8-.34 1.72-.34.9 0 1.68.34.79.33 1.38.93.59.59.93 1.39.33.8.33 1.69 0 .93-.33 1.72-.34.78-.93 1.36-.59.57-1.38.91-.78.33-1.68.33-.92 0-1.72-.33-.8-.34-1.38-.91-.58-.58-.91-1.36-.34-.79-.34-1.72m-10.97 10.02v-46.27h32.32v46.27zm2.08-44.1v41.89h27.93v-41.89zm41.34 10.76-2.11-3.36q1.82-1.48 4.14-2.48 2.32-1.01 5.49-1.01 2.24 0 4.03.61 1.79.6 3.04 1.71 1.25 1.1 1.91 2.65.65 1.56.65 3.44 0 1.76-.45 3.03-.44 1.26-1.12 2.21-.67.94-1.47 1.61t-1.53 1.27q-.74.59-1.3 1.16-.56.58-.72 1.28l-.7 3.08h-5.41l-.55-3.65q-.19-1.19.18-2.03.37-.85 1.02-1.54.66-.69 1.48-1.28.81-.59 1.53-1.25.72-.65 1.22-1.47.49-.82.49-1.94t-.76-1.82q-.77-.7-2.24-.7-1.16 0-1.94.22t-1.36.48-1.01.48-.91.22q-1.09 0-1.6-.92m2.56 23.32q0-.89.34-1.69.33-.8.91-1.39.57-.6 1.37-.93.8-.34 1.73-.34.9 0 1.68.34.79.33 1.38.93.59.59.93 1.39.33.8.33 1.69 0 .93-.33 1.72-.34.78-.93 1.36-.59.57-1.38.91-.78.33-1.68.33-.93 0-1.73-.33-.8-.34-1.37-.91-.58-.58-.91-1.36-.34-.79-.34-1.72m-10.98 10.02v-46.27h32.32v46.27zm2.08-44.1v41.89h27.94v-41.89z"/></svg>